GIL12_slow4_ik
nRows=3
nColumns=375

# SIMM Motion File Header:
name GIL12_slow4_ik
datacolumns 375
datarows 3
otherdata 1
range 1.30833000 1.32500000
endheader
time	pelvis_tx	pelvis_ty	pelvis_tz	pelvis_tilt	pelvis_list	pelvis_rotation	hip_flexion_r	hip_adduction_r	hip_rotation_r	knee_angle_r	ankle_angle_r	hip_flexion_l	hip_adduction_l	hip_rotation_l	knee_angle_l	ankle_angle_l	lumbar_extension	lumbar_bending	lumbar_rotation	subtalar_angle_r	mtp_angle_r	subtalar_angle_l	mtp_angle_l	asis_r_px	asis_r_py	asis_r_pz	asis_l_px	asis_l_py	asis_l_pz	midasis_px	midasis_py	midasis_pz	psis_r_px	psis_r_py	psis_r_pz	psis_l_px	psis_l_py	psis_l_pz	hip_r_px	hip_r_py	hip_r_pz	hip_l_px	hip_l_py	hip_l_pz	midhip_px	midhip_py	midhip_pz	epicondLat_r_px	epicondLat_r_py	epicondLat_r_pz	epicondMed_r_px	epicondMed_r_py	epicondMed_r_pz	thighwand_r_px	thighwand_r_py	thighwand_r_pz	upperleg1_r_px	upperleg1_r_py	upperleg1_r_pz	upperleg2_r_px	upperleg2_r_py	upperleg2_r_pz	malleolusLat_r_px	malleolusLat_r_py	malleolusLat_r_pz	malleolusMedv_r_px	malleolusMedv_r_py	malleolusMedv_r_pz	shankwand_r_px	shankwand_r_py	shankwand_r_pz	lowerleg1_r_px	lowerleg1_r_py	lowerleg1_r_pz	knee_r_px	knee_r_py	knee_r_pz	ankle_r_px	ankle_r_py	ankle_r_pz	toe_r_px	toe_r_py	toe_r_pz	epicondLat_l_px	epicondLat_l_py	epicondLat_l_pz	epicondMed_l_px	epicondMed_l_py	epicondMed_l_pz	thighwand_l_px	thighwand_l_py	thighwand_l_pz	upperleg1_l_px	upperleg1_l_py	upperleg1_l_pz	upperleg2_l_px	upperleg2_l_py	upperleg2_l_pz	malleolusLat_l_px	malleolusLat_l_py	malleolusLat_l_pz	malleolusMedv_l_px	malleolusMedv_l_py	malleolusMedv_l_pz	shankwand_l_px	shankwand_l_py	shankwand_l_pz	lowerleg1_l_px	lowerleg1_l_py	lowerleg1_l_pz	knee_l_px	knee_l_py	knee_l_pz	ankle_l_px	ankle_l_py	ankle_l_pz	toe_l_px	toe_l_py	toe_l_pz	subclavicle_r_px	subclavicle_r_py	subclavicle_r_pz	subclavicle_l_px	subclavicle_l_py	subclavicle_l_pz	neck_px	neck_py	neck_pz	sternalnotch_px	sternalnotch_py	sternalnotch_pz	xyphoidprocess_px	xyphoidprocess_py	xyphoidprocess_pz	midhip_tx	midhip_ty	midhip_tz	hip_r_tx	hip_r_ty	hip_r_tz	hip_l_tx	hip_l_ty	hip_l_tz	knee_r_tx	knee_r_ty	knee_r_tz	knee_l_tx	knee_l_ty	knee_l_tz	ankle_r_tx	ankle_r_ty	ankle_r_tz	ankle_l_tx	ankle_l_ty	ankle_l_tz	midasis_tx	midasis_ty	midasis_tz	asis_r_tx	asis_r_ty	asis_r_tz	asis_l_tx	asis_l_ty	asis_l_tz	psis_r_tx	psis_r_ty	psis_r_tz	psis_l_tx	psis_l_ty	psis_l_tz	epicondLat_r_tx	epicondLat_r_ty	epicondLat_r_tz	epicondLat_l_tx	epicondLat_l_ty	epicondLat_l_tz	epicondMed_r_tx	epicondMed_r_ty	epicondMed_r_tz	epicondMed_l_tx	epicondMed_l_ty	epicondMed_l_tz	malleolusLat_r_tx	malleolusLat_r_ty	malleolusLat_r_tz	malleolusLat_l_tx	malleolusLat_l_ty	malleolusLat_l_tz	malleolusMedv_r_tx	malleolusMedv_r_ty	malleolusMedv_r_tz	malleolusMedv_l_tx	malleolusMedv_l_ty	malleolusMedv_l_tz	neck_tx	neck_ty	neck_tz	subclavicle_r_tx	subclavicle_r_ty	subclavicle_r_tz	subclavicle_l_tx	subclavicle_l_ty	subclavicle_l_tz	sternalnotch_tx	sternalnotch_ty	sternalnotch_tz	xyphoidprocess_tx	xyphoidprocess_ty	xyphoidprocess_tz	thighwand_r_tx	thighwand_r_ty	thighwand_r_tz	thighwand_l_tx	thighwand_l_ty	thighwand_l_tz	upperleg1_r_tx	upperleg1_r_ty	upperleg1_r_tz	upperleg1_l_tx	upperleg1_l_ty	upperleg1_l_tz	upperleg2_r_tx	upperleg2_r_ty	upperleg2_r_tz	upperleg2_l_tx	upperleg2_l_ty	upperleg2_l_tz	shankwand_r_tx	shankwand_r_ty	shankwand_r_tz	shankwand_l_tx	shankwand_l_ty	shankwand_l_tz	lowerleg1_r_tx	lowerleg1_r_ty	lowerleg1_r_tz	lowerleg1_l_tx	lowerleg1_l_ty	lowerleg1_l_tz	toe_r_tx	toe_r_ty	toe_r_tz	toe_l_tx	toe_l_ty	toe_l_tz	ground_force_vx	ground_force_vy	ground_force_vz	ground_force_px	ground_force_py	ground_force_pz	ground_force_vx	ground_force_vy	ground_force_vz	ground_force_px	ground_force_py	ground_force_pz	ground_torque_x	ground_torque_y	ground_torque_z	ground_torque_x	ground_torque_y	ground_torque_z	ground_marker_px	ground_marker_py	ground_marker_pz	ground_marker_px	ground_marker_py	ground_marker_pz	ground_marker_px	ground_marker_py	ground_marker_pz	ground_marker_px	ground_marker_py	ground_marker_pz	ground_marker_px	ground_marker_py	ground_marker_pz	ground_marker_px	ground_marker_py	ground_marker_pz	ground_marker_px	ground_marker_py	ground_marker_pz	ground_marker_px	ground_marker_py	ground_marker_pz	ground_marker_px	ground_marker_py	ground_marker_pz	ground_marker_px	ground_marker_py	ground_marker_pz	ground_marker_px	ground_marker_py	ground_marker_pz	ground_marker_px	ground_marker_py	ground_marker_pz	ground_marker_px	ground_marker_py	ground_marker_pz	ground_marker_px	ground_marker_py	ground_marker_pz	ground_marker_px	ground_marker_py	ground_marker_pz	ground_marker_px	ground_marker_py	ground_marker_pz	ground_marker_px	ground_marker_py	ground_marker_pz	ground_marker_px	ground_marker_py	ground_marker_pz	ground_marker_px	ground_marker_py	ground_marker_pz	ground_marker_px	ground_marker_py	ground_marker_pz	ground_marker_px	ground_marker_py	ground_marker_pz	ground_marker_px	ground_marker_py	ground_marker_pz	ground_marker_px	ground_marker_py	ground_marker_pz	ground_marker_px	ground_marker_py	ground_marker_pz	ground_marker_px	ground_marker_py	ground_marker_pz	ground_marker_px	ground_marker_py	ground_marker_pz	ground_marker_px	ground_marker_py	ground_marker_pz	ground_marker_px	ground_marker_py	ground_marker_pz	ground_marker_px	ground_marker_py	ground_marker_pz	ground_marker_px	ground_marker_py	ground_marker_pz	ground_marker_px	ground_marker_py	ground_marker_pz	ground_marker_px	ground_marker_py	ground_marker_pz	ground_marker_px	ground_marker_py	ground_marker_pz	ground_marker_px	ground_marker_py	ground_marker_pz	ground_marker_px	ground_marker_py	ground_marker_pz	ground_marker_px	ground_marker_py	ground_marker_pz	ground_marker_px	ground_marker_py	ground_marker_pz
      1.30833000	     -0.90093695	      0.68616590	      0.24039155	      5.86426432	      0.99407140	     -2.78360120	     14.37142794	     -7.15861934	    -11.00486618	    -44.86481837	     11.51871308	     -5.61563180	      6.55709812	     -2.21634545	     -6.52282914	      6.80436919	    -25.04606691	     -3.23784373	      1.07841934	      0.00000000	      0.00000000	      0.00000000	      0.00000000	     -0.79364817	      0.67595626	      0.30873948	     -0.78115651	      0.68003173	      0.13479278	     -0.89144362	      0.68713286	      0.24085545	     -0.91777434	      0.73324887	      0.25738686	     -0.91213548	      0.73445095	      0.17227803	     -0.94692213	      0.63515336	      0.29417164	     -0.94161841	      0.63768329	      0.18036100	     -0.94427027	      0.63641833	      0.23726632	     -0.80243125	      0.36325584	      0.38452491	     -0.77602030	      0.35645822	      0.29496716	     -0.69154188	      0.47748975	      0.34207976	     -0.78735201	      0.51066067	      0.35881650	     -0.77594048	      0.42396878	      0.36727772	     -0.96395967	      0.07571520	      0.35902137	     -0.93792637	      0.06317296	      0.30516924	     -0.91778234	      0.14479268	      0.43474100	     -0.88023915	      0.19259001	      0.37478304	     -0.84149262	      0.34902866	      0.33145035	     -0.95651464	      0.08506166	      0.30711838	     -0.87534412	      0.03503426	      0.37309069	     -0.88995685	      0.31490072	      0.13955723	     -0.88265582	      0.32140002	      0.23114017	     -0.82575034	      0.37806867	      0.07538888	     -0.82057178	      0.44789883	      0.14896050	     -0.82855621	      0.36729848	      0.17480048	     -0.96335575	      0.03237718	      0.17424393	     -0.94176401	      0.02993113	      0.23585907	     -0.83279028	      0.11883034	      0.21126945	     -0.88528145	      0.18474060	      0.19181329	     -0.94471453	      0.33601444	      0.20826129	     -0.97780167	      0.05014772	      0.23445556	     -0.86562524	      0.00831880	      0.17577345	     -0.84504366	      1.00531101	      0.27415984	     -0.84057420	      1.00886951	      0.18564393	     -0.94304276	      1.02338515	      0.22869649	     -0.86222579	      1.01168776	      0.23685469	     -0.76236081	      0.91074030	      0.23267662	     -0.93657800	      0.62661300	      0.23805400	     -0.93543400	      0.63845000	      0.29366300	     -0.92951100	      0.63997400	      0.17637700	     -0.83565600	      0.35598300	      0.33006100	     -0.93358300	      0.34154300	      0.20919400	     -0.95866000	      0.09106600	      0.32408300	     -0.97058900	      0.05456800	      0.21961700	     -0.88905600	      0.70170900	      0.23802500	     -0.89358500	      0.70054300	      0.32770000	     -0.88452700	      0.70287400	      0.14835000	     -1.02552300	      0.71772300	      0.27640000	     -1.02039800	      0.71660300	      0.19241600	     -0.84808500	      0.35729700	      0.37433100	     -0.93310400	      0.33629000	      0.16148500	     -0.81885100	      0.35031200	      0.28798700	     -0.94251700	      0.34679300	      0.24687700	     -0.96854900	      0.09494100	      0.35585500	     -0.97901700	      0.05451500	      0.18822900	     -0.94852200	      0.09330400	      0.29832200	     -0.97505500	      0.05535100	      0.25356500	     -0.94796700	      1.03494500	      0.22901200	     -0.86156700	      0.96005300	      0.27308900	     -0.86493000	      0.95640200	      0.18359300	     -0.87626600	      0.97293900	      0.23605100	     -0.84763400	      0.83384200	      0.23540700	     -0.74396100	      0.48141400	      0.32527300	     -0.86533100	      0.41292800	      0.10061100	     -0.83351900	      0.50457200	      0.35149100	     -0.87283400	      0.47668600	      0.17563600	     -0.81501700	      0.41918500	      0.35943900	     -0.88217900	      0.39486600	      0.19926300	     -0.92491500	      0.15949100	      0.42876600	     -0.86726700	      0.15240300	      0.24128500	     -0.89833900	      0.22276800	      0.37017100	     -0.91865100	      0.21299600	      0.21622300	     -0.88134400	      0.06061300	      0.34985400	     -0.88755600	      0.03726300	      0.22282900	      0.00000000	      0.00000000	      0.00000000	     -1.22253943	      0.00000000	      0.23165909	      5.95233925	    250.68357941	      4.71519289	     -0.94939880	      0.00000000	      0.21362715	      0.00000000	      0.00000000	      0.00000000	      0.00000000	      0.14802893	      0.00000000	     -0.93657804	      0.62661308	      0.23805423	     -0.93543392	      0.63844973	      0.29366276	     -0.92951065	      0.63997376	      0.17637716	     -0.83565605	      0.35598290	      0.33006099	     -0.93358266	      0.34154263	      0.20919424	     -0.95865965	      0.09106606	      0.32408318	     -0.97058874	      0.05456781	      0.21961693	     -0.88905621	      0.70170873	      0.23802468	     -0.89358503	      0.70054346	      0.32769963	     -0.88452744	      0.70287400	      0.14834973	     -1.02552319	      0.71772277	      0.27639997	     -1.02039766	      0.71660250	      0.19241565	     -0.84808469	      0.35729715	      0.37433061	     -0.93310434	      0.33628973	      0.16148493	     -0.81885070	      0.35031176	      0.28798679	     -0.94251662	      0.34679261	      0.24687652	     -0.96854889	      0.09494083	      0.35585490	     -0.97901672	      0.05451462	      0.18822877	     -0.94852155	      0.09330388	      0.29832172	     -0.97505486	      0.05535094	      0.25356546	     -0.94796681	      1.03494537	      0.22901168	     -0.86156714	      0.96005261	      0.27308923	     -0.86493039	      0.95640236	      0.18359321	     -0.87626600	      0.97293890	      0.23605077	     -0.84763420	      0.83384192	      0.23540670	     -0.74396139	      0.48141405	      0.32527307	     -0.86533123	      0.41292825	      0.10061141	     -0.83351922	      0.50457156	      0.35149080	     -0.87283438	      0.47668606	      0.17563646	     -0.81501704	      0.41918510	      0.35943869	     -0.88217872	      0.39486563	      0.19926278	     -0.92491490	      0.15949054	      0.42876613	     -0.86726737	      0.15240262	      0.24128470	     -0.89833939	      0.22276750	      0.37017149	     -0.91865075	      0.21299613	      0.21622282	     -0.88134366	      0.06061284	      0.34985393	     -0.88755596	      0.03726276	      0.22282875
      1.31667000	     -0.89637744	      0.68583199	      0.24053159	      6.16223574	      0.93995387	     -2.80958542	     14.72503493	     -6.85378478	    -10.80581057	    -43.48531046	     11.49728258	     -6.31837533	      6.55632005	     -1.76050949	     -6.65095723	      7.33645147	    -25.35039867	     -3.12035591	      1.02317439	      0.00000000	      0.00000000	      0.00000000	      0.00000000	     -0.78907485	      0.67624051	      0.30894735	     -0.77650846	      0.68022591	      0.13500394	     -0.88688951	      0.68684865	      0.24099982	     -0.91346847	      0.73284200	      0.25747560	     -0.90778893	      0.73399756	      0.17236883	     -0.94212680	      0.63462924	      0.29433203	     -0.93677344	      0.63708533	      0.18052209	     -0.93945012	      0.63585729	      0.23742706	     -0.79419675	      0.36413873	      0.38333299	     -0.76810833	      0.35786914	      0.29364227	     -0.68478464	      0.47971946	      0.34070067	     -0.78088565	      0.51176939	      0.35794619	     -0.76846522	      0.42518953	      0.36612908	     -0.94636828	      0.07251914	      0.35953424	     -0.92018501	      0.06067308	      0.30559725	     -0.90222334	      0.14343592	      0.43476416	     -0.86664512	      0.19226587	      0.37444119	     -0.83352318	      0.34977737	      0.33033756	     -0.93950613	      0.08191642	      0.30756014	     -0.85634939	      0.03492824	      0.37329300	     -0.88682062	      0.31396783	      0.14024495	     -0.88023007	      0.32045439	      0.23188266	     -0.82169188	      0.37670529	      0.07658569	     -0.81667558	      0.44652826	      0.15017538	     -0.82538108	      0.36598944	      0.17597431	     -0.96293994	      0.03196559	      0.17440313	     -0.94188875	      0.02935665	      0.23619838	     -0.83195615	      0.11731275	      0.21250155	     -0.88371651	      0.18366237	      0.19258627	     -0.94199047	      0.33544434	      0.20849179	     -0.97773920	      0.04987998	      0.23448619	     -0.86519160	      0.00813714	      0.17645711	     -0.84080183	      1.00455257	      0.27474167	     -0.83615359	      1.00819709	      0.18623847	     -0.93870865	      1.02267269	      0.22909815	     -0.85790849	      1.01096592	      0.23740813	     -0.75803691	      0.91002076	      0.23333351	     -0.93150400	      0.62606400	      0.23813400	     -0.93077600	      0.63800500	      0.29403400	     -0.92485400	      0.63944700	      0.17674700	     -0.82776900	      0.35668600	      0.32921200	     -0.93104000	      0.34120000	      0.20961300	     -0.94152800	      0.08762400	      0.32423900	     -0.97054300	      0.05450100	      0.21979300	     -0.88471800	      0.70144600	      0.23833800	     -0.88924500	      0.70034400	      0.32799900	     -0.88019100	      0.70254900	      0.14867800	     -1.02048000	      0.71665300	      0.27551000	     -1.01604800	      0.71569900	      0.19280700	     -0.83998700	      0.35775600	      0.37354700	     -0.93022200	      0.33592600	      0.16191100	     -0.81119300	      0.35146300	      0.28691900	     -0.93925500	      0.34648900	      0.24739600	     -0.95160500	      0.09129800	      0.35597600	     -0.97882900	      0.05452700	      0.18836600	     -0.93114600	      0.08996700	      0.29840600	     -0.97458100	      0.05510800	      0.25366700	     -0.94337400	      1.03437200	      0.22940200	     -0.85766900	      0.95924700	      0.27351700	     -0.86043100	      0.95574100	      0.18414200	     -0.87189900	      0.97226100	      0.23654900	     -0.84388500	      0.83304800	      0.23582100	     -0.73768100	      0.48327900	      0.32424300	     -0.86137600	      0.41255600	      0.10132700	     -0.82735500	      0.50535400	      0.35089500	     -0.86920100	      0.47613300	      0.17620300	     -0.80783800	      0.42021700	      0.35853100	     -0.87866300	      0.39449600	      0.19994900	     -0.91037000	      0.15764800	      0.42859200	     -0.86615700	      0.15146500	      0.24204800	     -0.88595800	      0.22149700	      0.36971000	     -0.91689600	      0.21254900	      0.21671100	     -0.86310600	      0.05989400	      0.35023400	     -0.88747100	      0.03722000	      0.22292800	      0.00000000	      0.00000000	      0.00000000	     -1.22046460	      0.00000000	      0.23140997	      5.49238402	    250.85092385	      5.02901830	     -0.94624689	      0.00000000	      0.21388881	      0.00000000	      0.00000000	      0.00000000	      0.00000000	      0.17156964	      0.00000000	     -0.93150401	      0.62606394	      0.23813406	     -0.93077582	      0.63800466	      0.29403415	     -0.92485350	      0.63944739	      0.17674747	     -0.82776892	      0.35668603	      0.32921243	     -0.93103999	      0.34119996	      0.20961292	     -0.94152820	      0.08762392	      0.32423928	     -0.97054303	      0.05450068	      0.21979254	     -0.88471806	      0.70144647	      0.23833846	     -0.88924545	      0.70034355	      0.32799888	     -0.88019073	      0.70254940	      0.14867803	     -1.02047992	      0.71665281	      0.27551007	     -1.01604760	      0.71569860	      0.19280742	     -0.83998656	      0.35775644	      0.37354735	     -0.93022197	      0.33592641	      0.16191050	     -0.81119311	      0.35146308	      0.28691891	     -0.93925488	      0.34648922	      0.24739595	     -0.95160532	      0.09129792	      0.35597578	     -0.97882867	      0.05452650	      0.18836649	     -0.93114591	      0.08996663	      0.29840598	     -0.97458130	      0.05510755	      0.25366685	     -0.94337398	      1.03437221	      0.22940214	     -0.85766906	      0.95924664	      0.27351719	     -0.86043149	      0.95574081	      0.18414196	     -0.87189937	      0.97226143	      0.23654917	     -0.84388471	      0.83304840	      0.23582058	     -0.73768109	      0.48327869	      0.32424268	     -0.86137575	      0.41255575	      0.10132667	     -0.82735527	      0.50535446	      0.35089508	     -0.86920065	      0.47613263	      0.17620321	     -0.80783784	      0.42021659	      0.35853073	     -0.87866306	      0.39449647	      0.19994909	     -0.91037023	      0.15764762	      0.42859197	     -0.86615711	      0.15146518	      0.24204773	     -0.88595784	      0.22149652	      0.36971048	     -0.91689616	      0.21254902	      0.21671116	     -0.86310554	      0.05989421	      0.35023358	     -0.88747120	      0.03722009	      0.22292760
      1.32500000	     -0.89179381	      0.68547265	      0.24061917	      6.44901359	      0.88769277	     -2.80100934	     15.04592907	     -6.56678716	    -10.67722387	    -42.01157804	     11.34071291	     -7.01254754	      6.55518664	     -1.29820201	     -6.77935199	      7.86670311	    -25.65808653	     -2.96312299	      0.84769996	      0.00000000	      0.00000000	      0.00000000	      0.00000000	     -0.78444137	      0.67648178	      0.30903830	     -0.77190314	      0.68036948	      0.13509064	     -0.88231107	      0.68653725	      0.24108598	     -0.90911925	      0.73241211	      0.25752067	     -0.90344950	      0.73351753	      0.17241258	     -0.93728370	      0.63409114	      0.29446918	     -0.93194798	      0.63646895	      0.18065675	     -0.93461584	      0.63528004	      0.23756296	     -0.78615533	      0.36494869	      0.38217405	     -0.76034602	      0.35919535	      0.29236806	     -0.67813848	      0.48179678	      0.33943867	     -0.77450691	      0.51277941	      0.35713647	     -0.76113838	      0.42631466	      0.36503766	     -0.92856476	      0.06952336	      0.36001561	     -0.90220717	      0.05839105	      0.30601153	     -0.88664153	      0.14226660	      0.43477101	     -0.85307181	      0.19207827	      0.37410055	     -0.82573864	      0.35048188	      0.32923120	     -0.92226032	      0.07894471	      0.30797528	     -0.83730178	      0.03491710	      0.37345318	     -0.88373663	      0.31302298	      0.14089720	     -0.87781331	      0.31950905	      0.23258050	     -0.81772119	      0.37531735	      0.07771796	     -0.81283072	      0.44514038	      0.15131606	     -0.82224615	      0.36467006	      0.17707941	     -0.96255985	      0.03156943	      0.17456055	     -0.94202278	      0.02880599	      0.23652186	     -0.83115538	      0.11580652	      0.21366755	     -0.88218521	      0.18258909	      0.19331878	     -0.93927977	      0.33487168	      0.20870801	     -0.97768120	      0.04963518	      0.23451796	     -0.86479496	      0.00796506	      0.17709759	     -0.83653815	      1.00375933	      0.27550523	     -0.83156777	      1.00748304	      0.18702284	     -0.93427496	      1.02194044	      0.22952285	     -0.85350784	      1.01020991	      0.23811563	     -0.75364206	      0.90924842	      0.23431232	     -0.92645700	      0.62550500	      0.23822900	     -0.92608000	      0.63753400	      0.29440900	     -0.92022600	      0.63890100	      0.17711800	     -0.82005200	      0.35730600	      0.32838700	     -0.92850900	      0.34084800	      0.21002100	     -0.92413300	      0.08433800	      0.32430500	     -0.97050300	      0.05444100	      0.21995600	     -0.88036300	      0.70115200	      0.23863200	     -0.88483800	      0.70010700	      0.32828600	     -0.87588900	      0.70219600	      0.14897700	     -1.01546200	      0.71558500	      0.27475800	     -1.01174800	      0.71479400	      0.19329800	     -0.83208200	      0.35813600	      0.37277800	     -0.92737400	      0.33555100	      0.16232800	     -0.80370300	      0.35247200	      0.28603400	     -0.93583400	      0.34606500	      0.24796600	     -0.93441100	      0.08778300	      0.35600200	     -0.97864700	      0.05454300	      0.18849300	     -0.91359200	      0.08688800	      0.29780100	     -0.97448200	      0.05503200	      0.25380800	     -0.93878200	      1.03382600	      0.22985900	     -0.85332500	      0.95849800	      0.27412300	     -0.85599600	      0.95499300	      0.18472100	     -0.86745000	      0.97155200	      0.23711200	     -0.83981700	      0.83226300	      0.23643800	     -0.73152000	      0.48497400	      0.32331800	     -0.85747100	      0.41214300	      0.10199800	     -0.82130300	      0.50607600	      0.35033600	     -0.86552300	      0.47553100	      0.17673500	     -0.80081800	      0.42113300	      0.35775000	     -0.87506700	      0.39397800	      0.20062700	     -0.89574100	      0.15587900	      0.42833000	     -0.86502700	      0.15054900	      0.24280600	     -0.87353500	      0.22028200	      0.36922000	     -0.91522600	      0.21204800	      0.21722500	     -0.84479200	      0.05926800	      0.35048900	     -0.88736300	      0.03717600	      0.22302900	      0.00000000	      0.00000000	      0.00000000	     -1.21821912	      0.00000000	      0.23117261	      5.03443674	    251.14805660	      5.23837558	     -0.94297137	      0.00000000	      0.21418639	      0.00000000	      0.00000000	      0.00000000	      0.00000000	      0.19394647	      0.00000000	     -0.92645687	      0.62550521	      0.23822932	     -0.92607969	      0.63753450	      0.29440883	     -0.92022586	      0.63890070	      0.17711779	     -0.82005179	      0.35730582	      0.32838657	     -0.92850918	      0.34084812	      0.21002112	     -0.92413259	      0.08433767	      0.32430473	     -0.97050297	      0.05444071	      0.21995586	     -0.88036323	      0.70115155	      0.23863196	     -0.88483781	      0.70010722	      0.32828647	     -0.87588871	      0.70219588	      0.14897746	     -1.01546192	      0.71558481	      0.27475840	     -1.01174760	      0.71479434	      0.19329779	     -0.83208215	      0.35813642	      0.37277776	     -0.92737371	      0.33555147	      0.16232775	     -0.80370259	      0.35247245	      0.28603429	     -0.93583369	      0.34606498	      0.24796647	     -0.93441147	      0.08778294	      0.35600209	     -0.97864699	      0.05454345	      0.18849294	     -0.91359192	      0.08688822	      0.29780143	     -0.97448194	      0.05503159	      0.25380817	     -0.93878198	      1.03382576	      0.22985904	     -0.85332513	      0.95849836	      0.27412277	     -0.85599613	      0.95499259	      0.18472148	     -0.86745000	      0.97155172	      0.23711219	     -0.83981663	      0.83226281	      0.23643817	     -0.73151976	      0.48497361	      0.32331774	     -0.85747057	      0.41214305	      0.10199757	     -0.82130289	      0.50607640	      0.35033593	     -0.86552298	      0.47553068	      0.17673491	     -0.80081844	      0.42113295	      0.35775033	     -0.87506711	      0.39397821	      0.20062740	     -0.89574081	      0.15587948	      0.42832977	     -0.86502653	      0.15054879	      0.24280557	     -0.87353522	      0.22028172	      0.36921951	     -0.91522622	      0.21204840	      0.21722490	     -0.84479165	      0.05926832	      0.35048923	     -0.88736337	      0.03717568	      0.22302897
